<?xml version="1.0"?>
<svg xmlns="http://www.w3.org/2000/svg" viewBox="0 0 128 128" width="512" height="512"><g id="Layer_2" data-name="Layer 2"><path style="fill:#333399;" d="M91.913,35.878,80.762,25.243V13.493a1.749,1.749,0,0,0-1.75-1.75H76.083V6.75A6.757,6.757,0,0,0,69.333,0H58.667a6.757,6.757,0,0,0-6.75,6.75v4.993H48.988a1.749,1.749,0,0,0-1.75,1.75v12.07L29.88,58.671a31.868,31.868,0,0,0-3.63,14.742V116.25A11.763,11.763,0,0,0,38,128H90a11.763,11.763,0,0,0,11.75-11.75v-57.4A31.9,31.9,0,0,0,91.913,35.878ZM77.262,24.243H73.938v-9h3.324Zm-11.512,0v-9h4.688v9Zm-8.187,0v-9H62.25v9ZM55.417,6.75a3.254,3.254,0,0,1,3.25-3.25H69.333a3.254,3.254,0,0,1,3.25,3.25v4.993H55.417Zm-4.679,8.493h3.325v9H50.738ZM98.25,116.25A8.259,8.259,0,0,1,90,124.5H38a8.259,8.259,0,0,1-8.25-8.25V73.413A28.359,28.359,0,0,1,32.98,60.3L50.046,27.743H78.312L89.5,38.411A28.375,28.375,0,0,1,98.25,58.854Z"/><path style="fill:#333399;" d="M81.678,41.75H74.25A4.756,4.756,0,0,0,69.5,46.5V67.25A7.759,7.759,0,0,0,77.25,75H84a7.759,7.759,0,0,0,7.75-7.75v-8.4a21.89,21.89,0,0,0-6.794-15.791A4.727,4.727,0,0,0,81.678,41.75Zm6.572,25.5A4.255,4.255,0,0,1,84,71.5H77.25A4.255,4.255,0,0,1,73,67.25V46.5a1.252,1.252,0,0,1,1.25-1.25h7.428a1.3,1.3,0,0,1,.918.4A18.33,18.33,0,0,1,88.25,58.854Z"/><path style="fill:#333399;" d="M89.992,80H38.008a1.75,1.75,0,0,0-1.75,1.75v34.49a1.75,1.75,0,0,0,1.75,1.75H89.992a1.75,1.75,0,0,0,1.75-1.75V81.752A1.75,1.75,0,0,0,89.992,80Zm-1.75,34.49H39.758V83.5H88.242Z"/><path style="fill:#333399;" d="M45.75,109.417h36.5a1.75,1.75,0,0,0,0-3.5H45.75a1.75,1.75,0,0,0,0,3.5Z"/><path style="fill:#333399;" d="M45.75,100.747h36.5a1.75,1.75,0,0,0,0-3.5H45.75a1.75,1.75,0,0,0,0,3.5Z"/><path style="fill:#333399;" d="M45.75,92.078h36.5a1.75,1.75,0,0,0,0-3.5H45.75a1.75,1.75,0,0,0,0,3.5Z"/></g></svg>
