<svg id="epu14rtqpbd1" xmlns="http://www.w3.org/2000/svg" xmlns:xlink="http://www.w3.org/1999/xlink" viewBox="0 0 1157.720000 825.980000" shape-rendering="geometricPrecision" text-rendering="geometricPrecision"><ellipse id="epu14rtqpbd2" rx="35.780000" ry="4.850000" transform="matrix(1 0 0 1 1053.28999999999996 821.13000000000000)" opacity="0.1" fill="rgb(108,99,255)" stroke="none" stroke-width="1"/><path id="epu14rtqpbd3" d="M734.140000,125.340000C684.460000,156.490000,620,154.470000,563.560000,138.270000C507.120000,122.070000,455.230000,93.210000,400.210000,72.710000C353.990698,55.490269,305.765733,44.229600,256.700000,39.200000C186.590000,32,108.290000,40.770000,59.430000,91.120000C5,147.190000,9.210000,248.320000,68.050000,299.800000C97.980000,325.980000,137.170000,338.800000,171.350000,359.270000C205.530000,379.740000,237.170000,413.660000,234.260000,453.120000C231.560000,489.640000,200.260000,517.670000,167.820000,535.260000C142.760000,548.850000,111.890000,563.690000,108.870000,591.840000C105.950000,619.080000,131.870000,640.430000,156.680000,652.560000C237.520000,692.160000,337.110000,691.780000,417.680000,651.560000C446.410000,637.210000,472.820000,618.130000,502.950000,606.940000C582.060000,577.580000,669.230000,607.140000,753,617.940000C824.106347,627.070281,896.307175,622.370758,965.630000,604.100000C1007.110000,593.100000,1048.750000,576.350000,1077.890000,545.100000C1098.890000,522.570000,1112,494.050000,1124.290000,465.890000Q1143.960000,420.890000,1162.090000,375.160000C1169.340000,356.880000,1176.490000,338.240000,1178.360000,318.680000C1181.760000,283.240000,1167.450000,248.200000,1147.960000,218.290000C1101.700000,147.290000,1023.790000,97.290000,939.450000,84.640000C855.110000,71.990000,765.760000,96.730000,700.320000,151" transform="matrix(1 0 0 1 -21.14124271499804 9.10874325999728)" opacity="0.34" fill="rgb(99,240,255)" stroke="none" stroke-width="1"/><ellipse id="epu14rtqpbd4" rx="4.560000" ry="3.440000" transform="matrix(1 0 0 1 127.06000000000000 23.45000000000000)" fill="rgb(246,247,249)" stroke="none" stroke-width="1"/><ellipse id="epu14rtqpbd5" rx="4.560000" ry="3.440000" transform="matrix(1 0 0 1 139.41999999999999 23.45000000000000)" fill="rgb(246,247,249)" stroke="none" stroke-width="1"/><ellipse id="epu14rtqpbd6" rx="4.560000" ry="3.440000" transform="matrix(1 0 0 1 151.77000000000001 23.45000000000000)" fill="rgb(246,247,249)" stroke="none" stroke-width="1"/><g id="epu14rtqpbd7" opacity="0.2"/><g id="epu14rtqpbd8" opacity="0.1"/><g id="epu14rtqpbd9" opacity="0.1"/><g id="epu14rtqpbd10" opacity="0.1"/><g id="epu14rtqpbd11" opacity="0.1"/><g id="epu14rtqpbd12" opacity="0.1"/><g id="epu14rtqpbd13" opacity="0.1"/><g id="epu14rtqpbd14" opacity="0.1"/><g id="epu14rtqpbd15" opacity="0.1"/><g id="epu14rtqpbd16" opacity="0.1"/><g id="epu14rtqpbd17" opacity="0.1"/><g id="epu14rtqpbd18" opacity="0.1"/><g id="epu14rtqpbd19" opacity="0.1"/><g id="epu14rtqpbd20" opacity="0.1"/><g id="epu14rtqpbd21" opacity="0.1"/><g id="epu14rtqpbd22" opacity="0.03"/><g id="epu14rtqpbd23" opacity="0.1"/><g id="epu14rtqpbd24" opacity="0.1"/><g id="epu14rtqpbd25" opacity="0.1"/><g id="epu14rtqpbd26" opacity="0.1"/><g id="epu14rtqpbd27" opacity="0.1"/><g id="epu14rtqpbd28" opacity="0.1"/><g id="epu14rtqpbd29" opacity="0.1"/><g id="epu14rtqpbd30" opacity="0.1"/><g id="epu14rtqpbd31" opacity="0.1"/><g id="epu14rtqpbd32" opacity="0.1"/><g id="epu14rtqpbd33" opacity="0.1"/><g id="epu14rtqpbd34" opacity="0.1"/><g id="epu14rtqpbd35" opacity="0.1"/><g id="epu14rtqpbd36" opacity="0.1"/><g id="epu14rtqpbd37" opacity="0.1"/><g id="epu14rtqpbd38" opacity="0.1"/><g id="epu14rtqpbd39" opacity="0.1"/><g id="epu14rtqpbd40" opacity="0.1"/><g id="epu14rtqpbd41" opacity="0.1"/><g id="epu14rtqpbd42" opacity="0.1"/><g id="epu14rtqpbd43" opacity="0.1"/><g id="epu14rtqpbd44" opacity="0.1"/><g id="epu14rtqpbd45" opacity="0.1"/><g id="epu14rtqpbd46" opacity="0.1"/><g id="epu14rtqpbd47" opacity="0.1"/><g id="epu14rtqpbd48" opacity="0.1"/><g id="epu14rtqpbd49" opacity="0.1"/><g id="epu14rtqpbd50" opacity="0.1"/><g id="epu14rtqpbd51" opacity="0.1"/><g id="epu14rtqpbd52" opacity="0.1"/><g id="epu14rtqpbd53" opacity="0.1"/><g id="epu14rtqpbd54" opacity="0.1"/><g id="epu14rtqpbd55" opacity="0.1"/><g id="epu14rtqpbd56" opacity="0.1"/><g id="epu14rtqpbd57" opacity="0.1"/><g id="epu14rtqpbd58" opacity="0.1"/><g id="epu14rtqpbd59" opacity="0.1"/><g id="epu14rtqpbd60" opacity="0.1"/><g id="epu14rtqpbd61" opacity="0.1"/><g id="epu14rtqpbd62" opacity="0.1"/><g id="epu14rtqpbd63" opacity="0.1"/><g id="epu14rtqpbd64" opacity="0.1"/><g id="epu14rtqpbd65" opacity="0.1"/><g id="epu14rtqpbd66" opacity="0.1"/><g id="epu14rtqpbd67" opacity="0.1"/><g id="epu14rtqpbd68" opacity="0.1"/><g id="epu14rtqpbd69" opacity="0.1"/><g id="epu14rtqpbd70" opacity="0.1"/><g id="epu14rtqpbd71" opacity="0.1"/></svg>