<svg id="e7i7u2dzmj391" xmlns="http://www.w3.org/2000/svg" xmlns:xlink="http://www.w3.org/1999/xlink" viewBox="0 0 1157.720000 825.980000" shape-rendering="geometricPrecision" text-rendering="geometricPrecision"><ellipse id="e7i7u2dzmj392" rx="35.780000" ry="4.850000" transform="matrix(1 0 0 1 1053.28999999999996 821.13000000000000)" opacity="0.1" fill="rgb(108,99,255)" stroke="none" stroke-width="1"/><path id="e7i7u2dzmj393" d="M366.310160,277.481806C342.259148,294.655634,311.052864,293.541954,283.729210,284.610461C256.405557,275.678967,231.284643,259.767678,204.648438,248.465479C182.272815,238.971781,158.926212,232.763473,135.172579,229.990520C101.231024,226.020968,63.324538,230.856103,39.670504,258.615405C13.319929,289.528295,15.358068,345.283969,43.843606,373.666269C58.333275,388.100003,77.305883,395.168012,93.853057,406.453671C110.400230,417.739329,125.717743,436.440332,124.308957,458.195686C123.001837,478.330138,107.848925,493.783827,92.144118,503.481664C80.012106,510.974195,65.067365,519.155884,63.605327,534.675731C62.191701,549.693872,74.740055,561.464698,86.751037,568.152291C125.887184,589.984830,174.100555,589.775326,213.105990,567.600964C227.014717,559.689426,239.800289,549.170111,254.386782,543.000765C292.685404,526.813812,334.886022,543.111031,375.440637,549.065359C409.864542,554.099127,444.818305,551.508155,478.378773,541.434997C498.460013,535.370403,518.618711,526.135680,532.725927,508.906719C542.892417,496.485328,549.239212,480.761489,555.189029,465.236128Q564.711642,440.426425,573.488712,415.214253C576.998572,405.136000,580.460020,394.859269,581.365322,384.075318C583.011325,364.536298,576.083588,345.217809,566.648117,328.727627C544.252790,289.583428,506.535111,262.017091,465.704549,255.042807C424.873986,248.068524,381.617990,261.708348,349.937269,291.628850" transform="matrix(1 0 0 1 -21.14124271499804 9.10874325999728)" opacity="0.34" fill="rgb(99,240,255)" stroke="none" stroke-width="1"/><ellipse id="e7i7u2dzmj394" rx="4.560000" ry="3.440000" transform="matrix(1 0 0 1 127.06000000000000 23.45000000000000)" fill="rgb(246,247,249)" stroke="none" stroke-width="1"/><ellipse id="e7i7u2dzmj395" rx="4.560000" ry="3.440000" transform="matrix(1 0 0 1 139.41999999999999 23.45000000000000)" fill="rgb(246,247,249)" stroke="none" stroke-width="1"/><ellipse id="e7i7u2dzmj396" rx="4.560000" ry="3.440000" transform="matrix(1 0 0 1 151.77000000000001 23.45000000000000)" fill="rgb(246,247,249)" stroke="none" stroke-width="1"/><g id="e7i7u2dzmj397" opacity="0.2"/><g id="e7i7u2dzmj398" opacity="0.1"/><g id="e7i7u2dzmj399" opacity="0.1"/><g id="e7i7u2dzmj3910" opacity="0.1"/><g id="e7i7u2dzmj3911" opacity="0.1"/><g id="e7i7u2dzmj3912" opacity="0.1"/><g id="e7i7u2dzmj3913" opacity="0.1"/><g id="e7i7u2dzmj3914" opacity="0.1"/><g id="e7i7u2dzmj3915" opacity="0.1"/><g id="e7i7u2dzmj3916" opacity="0.1"/><g id="e7i7u2dzmj3917" opacity="0.1"/><g id="e7i7u2dzmj3918" opacity="0.1"/><g id="e7i7u2dzmj3919" opacity="0.1"/><g id="e7i7u2dzmj3920" opacity="0.1"/><g id="e7i7u2dzmj3921" opacity="0.1"/><g id="e7i7u2dzmj3922" opacity="0.03"/><g id="e7i7u2dzmj3923" opacity="0.1"/><g id="e7i7u2dzmj3924" opacity="0.1"/><g id="e7i7u2dzmj3925" opacity="0.1"/><g id="e7i7u2dzmj3926" opacity="0.1"/><g id="e7i7u2dzmj3927" opacity="0.1"/><g id="e7i7u2dzmj3928" opacity="0.1"/><g id="e7i7u2dzmj3929" opacity="0.1"/><g id="e7i7u2dzmj3930" opacity="0.1"/><g id="e7i7u2dzmj3931" opacity="0.1"/><g id="e7i7u2dzmj3932" opacity="0.1"/><g id="e7i7u2dzmj3933" opacity="0.1"/><g id="e7i7u2dzmj3934" opacity="0.1"/><g id="e7i7u2dzmj3935" opacity="0.1"/><g id="e7i7u2dzmj3936" opacity="0.1"/><g id="e7i7u2dzmj3937" opacity="0.1"/><g id="e7i7u2dzmj3938" opacity="0.1"/><g id="e7i7u2dzmj3939" opacity="0.1"/><g id="e7i7u2dzmj3940" opacity="0.1"/><g id="e7i7u2dzmj3941" opacity="0.1"/><g id="e7i7u2dzmj3942" opacity="0.1"/><g id="e7i7u2dzmj3943" opacity="0.1"/><g id="e7i7u2dzmj3944" opacity="0.1"/><g id="e7i7u2dzmj3945" opacity="0.1"/><g id="e7i7u2dzmj3946" opacity="0.1"/><g id="e7i7u2dzmj3947" opacity="0.1"/><g id="e7i7u2dzmj3948" opacity="0.1"/><g id="e7i7u2dzmj3949" opacity="0.1"/><g id="e7i7u2dzmj3950" opacity="0.1"/><g id="e7i7u2dzmj3951" opacity="0.1"/><g id="e7i7u2dzmj3952" opacity="0.1"/><g id="e7i7u2dzmj3953" opacity="0.1"/><g id="e7i7u2dzmj3954" opacity="0.1"/><g id="e7i7u2dzmj3955" opacity="0.1"/><g id="e7i7u2dzmj3956" opacity="0.1"/><g id="e7i7u2dzmj3957" opacity="0.1"/><g id="e7i7u2dzmj3958" opacity="0.1"/><g id="e7i7u2dzmj3959" opacity="0.1"/><g id="e7i7u2dzmj3960" opacity="0.1"/><g id="e7i7u2dzmj3961" opacity="0.1"/><g id="e7i7u2dzmj3962" opacity="0.1"/><g id="e7i7u2dzmj3963" opacity="0.1"/><g id="e7i7u2dzmj3964" opacity="0.1"/><g id="e7i7u2dzmj3965" opacity="0.1"/><g id="e7i7u2dzmj3966" opacity="0.1"/><g id="e7i7u2dzmj3967" opacity="0.1"/><g id="e7i7u2dzmj3968" opacity="0.1"/><g id="e7i7u2dzmj3969" opacity="0.1"/><g id="e7i7u2dzmj3970" opacity="0.1"/><g id="e7i7u2dzmj3971" opacity="0.1"/></svg>