<svg id="e2q2llzoygvd1" xmlns="http://www.w3.org/2000/svg" xmlns:xlink="http://www.w3.org/1999/xlink" viewBox="0 0 1157.720000 825.980000" shape-rendering="geometricPrecision" text-rendering="geometricPrecision"><ellipse id="e2q2llzoygvd2" rx="35.780000" ry="4.850000" transform="matrix(1 0 0 1 1053.28999999999996 821.13000000000000)" opacity="0.1" fill="rgb(108,99,255)" stroke="none" stroke-width="1"/><path id="e2q2llzoygvd3" d="M154.857130,250.274529C145.539363,257.854701,133.449524,257.363146,122.863881,253.420969C112.278238,249.478793,102.545973,242.455879,92.226659,237.467322C83.557966,233.277000,74.513100,230.536782,65.310543,229.312858C52.161013,227.560779,37.475403,229.694908,28.311432,241.947289C18.102776,255.591600,18.892386,280.201000,29.928162,292.728361C35.541704,299.099112,42.892011,302.218785,49.302665,307.200041C55.713318,312.181297,61.647580,320.435533,61.101793,330.037896C60.595393,338.924827,54.724900,345.745765,48.640593,350.026190C43.940448,353.333238,38.150604,356.944466,37.584186,363.794606C37.036523,370.423302,41.897966,375.618701,46.551223,378.570467C61.713225,388.206898,80.391895,388.114427,95.503257,378.327123C100.891732,374.835133,105.845078,370.192125,111.496131,367.469104C126.333661,360.324517,142.682890,367.517772,158.394430,370.145890C171.730830,372.367691,185.272506,371.224089,198.274396,366.778006C206.054205,364.101220,213.864024,360.025204,219.329397,352.420697C223.268066,346.938152,225.726921,339.997975,228.031981,333.145402Q231.721201,322.194912,235.121586,311.066781C236.481365,306.618449,237.822388,302.082512,238.173117,297.322700C238.810806,288.698580,236.126884,280.171799,232.471424,272.893374C223.795098,255.615934,209.182634,243.448723,193.364188,240.370419C177.545741,237.292115,160.787641,243.312451,148.513996,256.518741" transform="matrix(1 0 0 1 -21.14124271499804 9.10874325999728)" opacity="0.34" fill="rgb(99,240,255)" stroke="none" stroke-width="1"/><ellipse id="e2q2llzoygvd4" rx="4.560000" ry="3.440000" transform="matrix(1 0 0 1 127.06000000000000 23.45000000000000)" fill="rgb(246,247,249)" stroke="none" stroke-width="1"/><ellipse id="e2q2llzoygvd5" rx="4.560000" ry="3.440000" transform="matrix(1 0 0 1 139.41999999999999 23.45000000000000)" fill="rgb(246,247,249)" stroke="none" stroke-width="1"/><ellipse id="e2q2llzoygvd6" rx="4.560000" ry="3.440000" transform="matrix(1 0 0 1 151.77000000000001 23.45000000000000)" fill="rgb(246,247,249)" stroke="none" stroke-width="1"/><g id="e2q2llzoygvd7" opacity="0.2"/><g id="e2q2llzoygvd8" opacity="0.1"/><g id="e2q2llzoygvd9" opacity="0.1"/><g id="e2q2llzoygvd10" opacity="0.1"/><g id="e2q2llzoygvd11" opacity="0.1"/><g id="e2q2llzoygvd12" opacity="0.1"/><g id="e2q2llzoygvd13" opacity="0.1"/><g id="e2q2llzoygvd14" opacity="0.1"/><g id="e2q2llzoygvd15" opacity="0.1"/><g id="e2q2llzoygvd16" opacity="0.1"/><g id="e2q2llzoygvd17" opacity="0.1"/><g id="e2q2llzoygvd18" opacity="0.1"/><g id="e2q2llzoygvd19" opacity="0.1"/><g id="e2q2llzoygvd20" opacity="0.1"/><g id="e2q2llzoygvd21" opacity="0.1"/><g id="e2q2llzoygvd22" opacity="0.03"/><g id="e2q2llzoygvd23" opacity="0.1"/><g id="e2q2llzoygvd24" opacity="0.1"/><g id="e2q2llzoygvd25" opacity="0.1"/><g id="e2q2llzoygvd26" opacity="0.1"/><g id="e2q2llzoygvd27" opacity="0.1"/><g id="e2q2llzoygvd28" opacity="0.1"/><g id="e2q2llzoygvd29" opacity="0.1"/><g id="e2q2llzoygvd30" opacity="0.1"/><g id="e2q2llzoygvd31" opacity="0.1"/><g id="e2q2llzoygvd32" opacity="0.1"/><g id="e2q2llzoygvd33" opacity="0.1"/><g id="e2q2llzoygvd34" opacity="0.1"/><g id="e2q2llzoygvd35" opacity="0.1"/><g id="e2q2llzoygvd36" opacity="0.1"/><g id="e2q2llzoygvd37" opacity="0.1"/><g id="e2q2llzoygvd38" opacity="0.1"/><g id="e2q2llzoygvd39" opacity="0.1"/><g id="e2q2llzoygvd40" opacity="0.1"/><g id="e2q2llzoygvd41" opacity="0.1"/><g id="e2q2llzoygvd42" opacity="0.1"/><g id="e2q2llzoygvd43" opacity="0.1"/><g id="e2q2llzoygvd44" opacity="0.1"/><g id="e2q2llzoygvd45" opacity="0.1"/><g id="e2q2llzoygvd46" opacity="0.1"/><g id="e2q2llzoygvd47" opacity="0.1"/><g id="e2q2llzoygvd48" opacity="0.1"/><g id="e2q2llzoygvd49" opacity="0.1"/><g id="e2q2llzoygvd50" opacity="0.1"/><g id="e2q2llzoygvd51" opacity="0.1"/><g id="e2q2llzoygvd52" opacity="0.1"/><g id="e2q2llzoygvd53" opacity="0.1"/><g id="e2q2llzoygvd54" opacity="0.1"/><g id="e2q2llzoygvd55" opacity="0.1"/><g id="e2q2llzoygvd56" opacity="0.1"/><g id="e2q2llzoygvd57" opacity="0.1"/><g id="e2q2llzoygvd58" opacity="0.1"/><g id="e2q2llzoygvd59" opacity="0.1"/><g id="e2q2llzoygvd60" opacity="0.1"/><g id="e2q2llzoygvd61" opacity="0.1"/><g id="e2q2llzoygvd62" opacity="0.1"/><g id="e2q2llzoygvd63" opacity="0.1"/><g id="e2q2llzoygvd64" opacity="0.1"/><g id="e2q2llzoygvd65" opacity="0.1"/><g id="e2q2llzoygvd66" opacity="0.1"/><g id="e2q2llzoygvd67" opacity="0.1"/><g id="e2q2llzoygvd68" opacity="0.1"/><g id="e2q2llzoygvd69" opacity="0.1"/><g id="e2q2llzoygvd70" opacity="0.1"/><g id="e2q2llzoygvd71" opacity="0.1"/></svg>