<svg id="Capa_1" enable-background="new 0 0 512 512" height="512" viewBox="0 0 512 512" width="512" xmlns="http://www.w3.org/2000/svg"><g><path  style="fill:#333399;" id="XMLID_2202_" d="m382.109 178.178-82.403-45.208c-13.205-7.245-22.676-19.416-26.64-33.505 7.906-.423 14.191-6.948 14.191-14.959 0-8.284-6.716-15-15-15h-1.257v-54.506c0-8.284-6.716-15-15-15h-110.018c-8.284 0-15 6.716-15 15v54.505h-3.147c-8.284 0-15 6.716-15 15s6.716 15 15 15h3.147v5.102c0 11.058-3.271 21.749-9.462 30.917l-21.308 31.56c-9.551 14.146-14.599 30.641-14.599 47.704v228.682c0 37.788 30.763 68.53 68.576 68.53h203.621c37.813 0 68.576-30.743 68.576-68.53v-190.527c0-31.133-16.966-59.782-44.277-74.765zm-221.127-148.178h80.018v39.505h-80.018zm235.404 413.47c0 21.246-17.306 38.53-38.576 38.53h-203.62c-21.271 0-38.576-17.285-38.576-38.53v-228.682c0-11.058 3.271-21.749 9.462-30.917l21.308-31.56c9.551-14.146 14.599-30.641 14.599-47.704v-5.102h81.354c4.488 25.122 20.089 47.229 42.94 59.766l82.403 45.208c17.706 9.714 28.706 28.285 28.706 48.464z"/><path   style="fill:#333399;" id="XMLID_2201_" d="m329.49 309.715h-146.98c-18.521 0-33.589 15.068-33.589 33.589v69.414c0 18.521 15.068 33.589 33.589 33.589h146.98c18.521 0 33.588-15.068 33.588-33.589v-69.414c0-18.521-15.067-33.589-33.588-33.589zm3.588 103.003c0 1.979-1.609 3.589-3.588 3.589h-146.98c-1.979 0-3.589-1.61-3.589-3.589v-69.414c0-1.979 1.61-3.589 3.589-3.589h146.98c1.979 0 3.588 1.61 3.588 3.589z"/><path  style="fill:#333399;" id="XMLID_2199_" d="m247.759 275.698h82.411c12.654 0 22.949-10.292 22.949-22.943v-18.307c0-8.611-4.752-16.418-12.402-20.376l-82.406-42.63c-3.246-1.681-6.895-2.569-10.552-2.569-12.654 0-22.949 10.292-22.949 22.943v60.938c0 12.651 10.294 22.944 22.949 22.944zm7.051-72.291 68.31 35.337v6.954h-68.31z"/></g></svg>