<?xml version="1.0" standalone="no"?>
<!DOCTYPE svg PUBLIC "-//W3C//DTD SVG 20010904//EN"
 "http://www.w3.org/TR/2001/REC-SVG-20010904/DTD/svg10.dtd">
<svg version="1.0" xmlns="http://www.w3.org/2000/svg"
 width="300.000000pt" height="300.000000pt" viewBox="0 0 300.000000 300.000000"
 preserveAspectRatio="xMidYMid meet">
<metadata>
Created by potrace 1.10, written by Peter Selinger 2001-2011
</metadata>
<g transform="translate(0.000000,300.000000) scale(0.100000,-0.100000)"
fill="#000000" stroke="none">
<path d="M670 2114 c-281 -76 -368 -436 -154 -634 65 -60 143 -93 234 -98 74
-5 75 -5 105 -45 109 -148 353 -108 411 66 19 58 15 138 -11 187 -19 37 -84
100 -102 100 -9 0 -13 21 -13 70 0 244 -231 418 -470 354z m250 -34 c25 -12
61 -36 81 -51 46 -36 103 -124 95 -145 -3 -8 -2 -12 4 -9 13 8 30 -61 30 -126
0 -54 1 -57 40 -84 45 -31 91 -102 89 -137 -1 -13 0 -27 2 -33 2 -5 0 -33 -4
-61 -9 -66 -66 -134 -132 -160 -53 -20 -153 -14 -194 12 -30 19 -87 77 -93 95
-3 8 -27 14 -64 16 -52 2 -99 9 -99 13 0 1 -8 3 -18 5 -23 4 -95 48 -130 78
-33 30 -72 85 -93 135 -15 35 -21 163 -10 218 7 33 46 114 55 114 4 0 13 11
19 25 13 27 129 108 143 99 5 -3 9 -1 9 5 0 6 6 8 14 5 8 -3 17 0 21 7 13 21
182 6 235 -21z"/>
<path d="M670 2061 c-105 -37 -140 -68 -190 -169 -27 -53 -32 -74 -31 -131 1
-76 29 -167 61 -196 11 -10 20 -22 20 -27 0 -37 149 -108 227 -108 54 0 63 8
63 56 0 79 61 169 135 200 19 8 55 14 80 14 32 0 44 4 39 11 -10 16 -94 4
-141 -20 -75 -38 -122 -110 -126 -191 l-2 -50 -56 0 c-122 0 -237 94 -274 224
-53 182 78 368 270 383 168 14 306 -103 335 -282 l9 -60 -3 66 c-3 49 -11 80
-30 115 -32 59 -100 134 -121 134 -8 0 -15 4 -15 9 0 31 -180 46 -250 22z"/>
<path d="M975 1652 c-46 -22 -97 -71 -107 -104 -11 -41 -8 -118 6 -146 76
-145 279 -134 342 18 15 34 16 132 2 123 -5 -2 -8 3 -8 12 0 10 -17 33 -37 54
-21 20 -37 38 -36 41 1 3 -6 6 -15 6 -9 1 -37 4 -62 8 -34 5 -55 2 -85 -12z
m142 -18 c86 -41 119 -153 69 -238 -29 -49 -90 -86 -144 -86 -103 0 -187 102
-168 204 8 42 52 100 91 120 40 20 109 20 152 0z"/>
<path d="M1551 2113 c-52 -19 -126 -88 -133 -126 -3 -17 1 -32 12 -42 24 -22
35 -19 37 11 4 80 126 150 223 129 55 -12 53 -60 -6 -124 -32 -37 -112 -86
-122 -76 -3 2 8 33 23 69 28 67 28 100 -2 94 -11 -2 -27 -32 -46 -86 -21 -58
-34 -81 -44 -78 -16 6 -17 -6 -2 -21 7 -7 7 -22 -2 -51 -10 -33 -9 -44 1 -57
20 -24 26 -18 39 39 11 51 14 54 49 61 57 11 106 40 150 90 51 58 57 88 25
126 -50 59 -115 73 -202 42z m-20 -250 c-12 -20 -14 -14 -5 12 4 9 9 14 11 11
3 -2 0 -13 -6 -23z"/>
<path d="M1852 1936 c-26 -55 -93 -149 -100 -142 -3 3 10 40 28 81 24 55 30
79 22 87 -19 19 -40 1 -60 -54 -31 -84 -35 -123 -16 -142 26 -26 32 -22 91 70
10 16 11 14 6 -14 -4 -23 -1 -38 12 -52 24 -26 33 -25 68 7 15 16 26 21 22 12
-3 -9 0 -21 8 -27 11 -9 18 -2 35 36 12 26 38 63 58 82 29 27 34 30 24 12 -13
-26 -7 -52 12 -52 16 0 72 115 63 129 -12 21 -29 11 -83 -46 -51 -55 -53 -56
-36 -21 19 40 13 71 -13 66 -10 -2 -24 -26 -37 -65 -19 -56 -67 -123 -88 -123
-17 0 -7 47 22 109 23 49 28 67 19 77 -19 24 -34 16 -57 -30z"/>
<path d="M2156 1947 c-33 -44 -53 -118 -40 -154 14 -40 56 -52 97 -29 34 18
91 85 81 95 -3 3 -8 1 -12 -5 -14 -21 -95 -74 -114 -74 -12 0 -18 7 -18 24 0
18 9 27 45 40 72 28 99 88 53 120 -35 25 -64 20 -92 -17z m84 -17 c0 -12 -71
-83 -77 -77 -6 6 14 46 35 70 16 18 42 23 42 7z"/>
<path d="M2390 1618 c-16 -29 -40 -81 -52 -116 -27 -75 -42 -78 -75 -14 -1 2
-10 -1 -20 -6 -13 -8 -18 -23 -19 -54 -2 -56 -37 -138 -60 -138 -13 0 -15 6
-9 38 10 52 43 148 71 204 29 57 30 74 5 88 -17 9 -22 2 -50 -71 -17 -44 -31
-85 -31 -89 0 -14 -17 -21 -34 -14 -9 3 -16 15 -16 25 0 21 -23 25 -37 7 -5
-7 -10 -32 -11 -56 -1 -50 -37 -132 -58 -132 -8 0 -14 10 -14 23 0 24 44 150
81 235 24 53 24 54 4 68 -19 14 -21 12 -42 -33 -12 -26 -34 -86 -49 -133 -20
-63 -37 -95 -65 -125 -21 -21 -41 -36 -45 -32 -4 4 7 45 24 91 37 97 38 106
13 106 -12 0 -31 -21 -55 -63 -43 -73 -82 -124 -89 -117 -3 3 10 38 29 79 19
40 34 75 34 77 0 2 -9 8 -20 14 -19 10 -23 6 -46 -44 -13 -30 -27 -77 -31
-104 -5 -43 -3 -51 14 -61 23 -12 49 10 77 67 9 17 18 32 19 32 1 0 1 -17 -1
-39 -7 -70 61 -89 90 -25 13 28 28 32 21 5 -5 -20 29 -51 58 -51 25 0 66 53
86 110 12 35 23 50 36 50 14 0 16 -4 8 -17 -5 -10 -12 -39 -16 -64 -6 -41 -4
-48 16 -63 13 -9 31 -16 40 -16 25 0 75 65 91 116 8 29 18 44 29 44 15 0 16
-4 2 -51 -18 -62 -8 -95 34 -105 23 -6 32 -2 59 30 31 36 32 36 38 13 9 -36
48 -53 86 -37 28 11 100 87 100 104 0 3 -23 -11 -50 -33 -56 -45 -87 -58 -102
-43 -17 17 1 49 31 55 40 8 91 54 91 82 0 23 -41 65 -64 65 -26 0 -95 -95 -97
-132 0 -14 -75 -78 -90 -78 -24 0 4 106 31 115 24 8 79 94 101 159 19 54 14
77 -21 96 -17 9 -23 4 -50 -42z m41 -61 c-24 -70 -45 -110 -67 -128 -21 -17
-22 -19 31 99 43 92 63 110 36 29z m119 -108 c0 -15 -79 -93 -86 -86 -4 3 4
21 17 39 35 50 69 73 69 47z"/>
<path d="M1529 1617 c-52 -25 -93 -67 -108 -110 -9 -23 -7 -31 11 -49 l22 -22
13 41 c26 78 93 123 181 123 65 0 87 -16 77 -60 -10 -48 -99 -133 -129 -124
-11 4 -22 8 -24 9 -1 1 7 23 18 49 11 26 20 56 20 66 0 19 -29 36 -41 23 -4
-4 -23 -57 -44 -117 -30 -89 -35 -114 -26 -133 16 -34 27 -28 37 19 8 38 13
43 44 49 42 9 62 -5 58 -39 -4 -36 -50 -67 -99 -67 -33 0 -46 6 -65 28 -21 25
-24 26 -24 8 0 -22 41 -58 77 -67 62 -16 153 34 153 84 0 14 -9 35 -20 47
l-21 22 29 12 c39 16 77 57 97 104 19 46 10 66 -43 102 -49 33 -127 34 -193 2z"/>
<path d="M293 1103 c-7 -2 -13 -9 -13 -14 0 -6 9 -5 21 1 11 7 23 10 25 7 2
-2 -7 -34 -21 -71 -33 -89 -19 -113 35 -61 26 25 27 25 26 4 -2 -35 20 -33 64
7 55 50 99 134 69 134 -5 0 -8 -4 -5 -8 15 -24 -98 -165 -117 -146 -8 8 9 60
32 98 12 18 21 39 21 45 0 22 -22 -1 -40 -43 -21 -48 -90 -120 -90 -93 0 9 9
39 20 67 11 28 20 57 20 65 0 15 -23 18 -47 8z"/>
<path d="M1014 1073 c-8 -21 -23 -56 -33 -78 -38 -81 -46 -114 -32 -127 18
-19 43 18 36 53 -5 22 -2 27 17 32 12 4 25 1 29 -5 9 -15 51 4 92 41 27 25 36
16 17 -19 -14 -27 6 -36 31 -14 10 9 19 22 19 27 0 6 -9 2 -20 -8 -21 -19 -29
-8 -8 13 8 8 8 15 -2 28 -13 14 -17 13 -40 -17 -27 -32 -51 -33 -49 -1 0 14 2
14 8 -2 5 -14 10 -16 15 -7 13 20 -1 40 -23 34 -10 -3 -31 -18 -45 -34 -15
-16 -31 -29 -36 -29 -14 0 5 36 41 78 32 36 38 72 13 72 -8 0 -22 -17 -30 -37z
m17 -15 c-24 -39 -28 -30 -5 13 8 17 18 28 21 25 3 -3 -4 -20 -16 -38z m25
-94 c-3 -8 -10 -13 -16 -9 -6 3 -5 16 3 32 9 21 13 23 15 9 2 -9 1 -24 -2 -32z
m-90 -81 c-10 -26 -18 -8 -9 23 5 21 8 24 11 11 2 -10 1 -25 -2 -34z"/>
<path d="M2695 1074 c-30 -71 -35 -84 -27 -84 9 0 55 111 48 117 -3 3 -12 -12
-21 -33z"/>
<path d="M2310 1064 c0 -8 5 -12 10 -9 6 4 8 11 5 16 -9 14 -15 11 -15 -7z"/>
<path d="M481 1004 c-25 -32 -27 -52 -5 -61 14 -5 69 35 60 45 -2 2 -14 -6
-26 -18 -11 -11 -26 -18 -31 -14 -7 4 0 16 17 30 22 17 26 25 18 34 -9 9 -17
5 -33 -16z m24 -4 c-3 -5 -11 -10 -16 -10 -6 0 -7 5 -4 10 3 6 11 10 16 10 6
0 7 -4 4 -10z"/>
<path d="M674 989 c-30 -26 -50 -37 -56 -31 -14 14 10 55 28 48 8 -3 14 -1 14
5 0 23 -45 3 -54 -24 -13 -36 5 -57 34 -39 11 7 21 8 25 2 11 -18 74 -5 103
23 27 26 59 40 34 15 -13 -13 -16 -48 -4 -48 4 0 13 5 19 11 8 8 13 8 17 0 4
-6 13 -11 20 -11 15 0 59 40 52 47 -2 2 -14 -5 -26 -17 -11 -11 -25 -18 -30
-15 -15 9 -12 25 4 25 21 0 41 29 29 41 -11 11 -15 8 -54 -44 -24 -31 -37 -30
-20 1 6 11 8 28 5 37 -6 14 -15 9 -50 -26 -47 -46 -53 -46 -29 0 13 27 11 41
-6 41 -4 0 -29 -18 -55 -41z m56 22 c0 -19 -47 -65 -54 -53 -4 7 4 23 18 37
27 27 36 31 36 16z m145 -11 c-3 -5 -11 -10 -16 -10 -6 0 -7 5 -4 10 3 6 11
10 16 10 6 0 7 -4 4 -10z"/>
<path d="M1404 1020 c-11 -4 -28 -20 -37 -34 -10 -14 -22 -26 -28 -26 -6 0 -3
7 5 16 9 8 16 23 16 32 0 11 -8 6 -22 -15 -29 -41 -39 -42 -31 -3 6 32 -12 41
-35 18 -20 -20 -13 -32 8 -13 22 20 24 17 11 -18 -12 -30 -5 -40 20 -26 30 15
22 -2 -13 -31 -21 -18 -29 -32 -25 -43 9 -25 34 -10 47 28 14 43 38 64 50 45
7 -11 14 -11 42 3 28 14 33 14 36 2 4 -18 24 -19 40 -3 9 9 12 9 12 0 0 -21
17 -13 54 25 25 26 36 32 36 21 0 -9 -4 -20 -10 -23 -15 -9 -12 -35 3 -35 15
0 47 31 47 45 0 5 -12 -2 -27 -16 l-27 -24 17 28 c16 24 16 29 3 42 -12 13
-17 10 -41 -20 -31 -41 -49 -46 -35 -9 16 41 12 41 -21 1 -36 -44 -48 -43 -24
2 19 38 8 40 -20 4 -13 -15 -27 -23 -33 -19 -14 9 -16 36 -2 36 5 0 6 -7 3
-17 -4 -11 -3 -14 5 -9 13 8 16 32 5 39 -5 3 -17 1 -29 -3z m-12 -62 c-15 -15
-21 4 -9 32 l10 25 5 -24 c2 -13 -1 -28 -6 -33z m-92 -69 c-7 -11 -14 -18 -17
-15 -3 3 0 12 7 21 18 21 23 19 10 -6z"/>
<path d="M1803 1023 c-7 -2 -28 -20 -47 -39 -38 -38 -68 -38 -42 -1 8 12 19
21 25 20 6 -2 11 2 11 8 0 20 -34 4 -50 -23 -20 -36 -3 -57 34 -41 17 8 27 8
35 0 13 -13 51 4 95 43 25 22 28 22 21 5 -18 -49 -16 -58 6 -26 31 44 53 54
39 16 -22 -58 1 -62 47 -8 l32 38 -11 -32 c-15 -39 -7 -49 24 -32 12 7 28 12
33 11 6 -1 10 12 11 28 l1 30 -34 -37 c-22 -24 -32 -31 -28 -18 17 47 17 55 3
55 -8 0 -24 -13 -36 -30 -26 -34 -49 -42 -32 -11 17 33 12 39 -31 38 -30 -2
-45 -8 -58 -26 -19 -25 -42 -21 -40 7 1 14 2 14 6 -2 4 -14 7 -16 13 -6 9 14
3 41 -9 39 -3 0 -12 -3 -18 -6z m-3 -38 c0 -16 -6 -25 -15 -25 -18 0 -18 5 -5
31 14 26 20 24 20 -6z"/>
<path d="M2096 1005 c-20 -22 -23 -31 -15 -46 14 -26 23 -24 69 17 41 38 52
36 24 -4 -9 -13 -13 -26 -9 -30 4 -4 10 -2 12 5 7 19 44 63 53 63 4 0 3 -13
-3 -30 -14 -36 -3 -50 21 -26 16 16 16 17 -1 10 -15 -5 -16 -3 -7 21 12 32 5
49 -17 36 -9 -4 -23 -6 -32 -4 -9 2 -29 -9 -45 -26 -29 -31 -56 -40 -56 -21 0
6 6 10 14 10 22 0 41 29 28 42 -8 8 -18 3 -36 -17z m34 1 c0 -2 -7 -7 -16 -10
-8 -3 -12 -2 -9 4 6 10 25 14 25 6z"/>
<path d="M2334 1013 c-11 -11 -24 -28 -30 -39 -7 -10 -15 -16 -19 -12 -4 4 0
19 9 33 19 29 7 34 -17 7 -10 -11 -14 -26 -10 -40 6 -23 18 -29 28 -12 4 6 13
5 25 -2 17 -11 25 -7 60 27 43 42 49 41 25 -5 -21 -40 -5 -38 20 2 28 44 47
49 32 9 -12 -34 -5 -50 16 -33 10 9 16 9 25 0 8 -8 18 -9 36 -1 16 8 27 8 34
1 7 -7 16 -6 29 1 25 13 49 41 35 41 -5 0 -15 -7 -22 -15 -14 -17 -40 -20 -40
-5 0 6 6 10 14 10 21 0 41 29 29 41 -7 7 -24 -2 -52 -32 -29 -28 -45 -39 -52
-32 -14 14 11 55 28 48 7 -2 13 0 13 5 0 21 -30 9 -52 -20 -27 -37 -41 -39
-28 -4 12 32 5 47 -18 35 -9 -4 -23 -6 -30 -4 -8 3 -31 -11 -51 -31 -21 -20
-40 -33 -44 -30 -11 12 -8 24 7 24 21 0 41 29 29 41 -8 8 -16 5 -29 -8z m26
-7 c0 -2 -7 -7 -16 -10 -8 -3 -12 -2 -9 4 6 10 25 14 25 6z m250 0 c0 -2 -7
-7 -16 -10 -8 -3 -12 -2 -9 4 6 10 25 14 25 6z"/>
<path d="M2645 950 c3 -5 8 -10 11 -10 2 0 4 5 4 10 0 6 -5 10 -11 10 -5 0 -7
-4 -4 -10z"/>
</g>
</svg>
