<?xml version="1.0" standalone="no"?>
<!DOCTYPE svg PUBLIC "-//W3C//DTD SVG 20010904//EN"
 "http://www.w3.org/TR/2001/REC-SVG-20010904/DTD/svg10.dtd">
<svg version="1.0" xmlns="http://www.w3.org/2000/svg"
 width="300.000000pt" height="142.000000pt" viewBox="0 0 300.000000 142.000000"
 preserveAspectRatio="xMidYMid meet">
<metadata>
Created by potrace 1.10, written by Peter Selinger 2001-2011
</metadata>
<g transform="translate(0.000000,142.000000) scale(0.100000,-0.100000)"
fill="#000000" stroke="none">
<path d="M533 1235 c-233 -51 -392 -282 -354 -513 26 -151 119 -273 258 -339
66 -32 89 -38 164 -41 l87 -4 31 -43 c109 -152 325 -161 449 -20 114 130 91
323 -51 426 -39 28 -41 32 -38 74 13 214 -165 429 -384 465 -74 12 -84 12
-162 -5z m230 -26 c117 -39 217 -129 266 -240 25 -56 42 -162 35 -210 -6 -33
-3 -38 27 -57 125 -77 171 -229 109 -358 -29 -60 -74 -102 -139 -132 -45 -21
-64 -24 -126 -20 -101 7 -164 45 -225 136 -13 20 -24 23 -79 23 -350 2 -560
379 -375 674 108 172 316 248 507 184z"/>
<path d="M574 1165 c-117 -21 -215 -87 -271 -183 -45 -75 -76 -213 -54 -235 6
-6 11 -19 11 -29 0 -39 42 -126 85 -175 55 -63 146 -111 231 -122 88 -12 101
-4 106 66 10 139 110 238 253 252 l60 6 -1 75 c-1 59 -7 87 -27 130 -71 147
-243 242 -393 215z m196 -41 c30 -14 69 -36 87 -50 71 -54 133 -184 133 -280
l0 -44 -52 0 c-140 0 -268 -127 -272 -268 l-1 -54 -70 4 c-133 9 -257 100
-306 226 -35 89 -32 198 8 282 86 185 294 265 473 184z"/>
<path d="M886 665 c-61 -21 -88 -46 -119 -106 -112 -215 165 -414 337 -242 86
87 81 221 -13 306 -61 55 -130 69 -205 42z m173 -34 c120 -71 122 -256 4 -331
-59 -38 -103 -44 -167 -26 -82 24 -146 107 -146 190 0 80 76 178 151 194 60
12 106 5 158 -27z"/>
<path d="M1533 1210 c-106 -53 -164 -151 -113 -192 31 -25 40 -23 40 11 0 38
36 88 88 125 35 25 55 31 111 34 40 2 77 -1 90 -7 41 -23 17 -106 -47 -162
-33 -29 -120 -75 -127 -67 -2 1 13 40 32 86 36 87 34 112 -8 112 -18 0 -32
-30 -73 -157 -12 -37 -21 -50 -32 -46 -8 3 -14 -1 -14 -10 0 -8 4 -17 9 -19 5
-2 4 -25 -2 -55 -8 -40 -8 -55 2 -67 17 -21 29 -20 34 2 3 9 10 38 17 65 11
41 16 47 39 47 48 0 144 54 193 109 47 52 65 95 54 129 -4 11 -25 34 -49 53
-37 30 -50 34 -112 37 -62 3 -77 0 -132 -28z m57 -9 c-8 -5 -26 -11 -40 -15
-21 -5 -20 -3 5 9 32 15 60 20 35 6z m-75 -41 c-3 -5 -12 -10 -18 -10 -7 0 -6
4 3 10 19 12 23 12 15 0z m282 -52 c-3 -8 -6 -5 -6 6 -1 11 2 17 5 13 3 -3 4
-12 1 -19z m-339 -13 c-6 -14 -15 -25 -19 -25 -4 0 -10 -8 -12 -17 -4 -16 -5
-16 -6 -1 0 9 6 23 14 32 8 8 15 19 15 25 0 6 4 11 10 11 6 0 5 -10 -2 -25z
m152 15 c0 -8 -10 -33 -53 -127 -6 -14 -7 -27 0 -35 6 -9 2 -19 -13 -34 -21
-21 -23 -21 -27 -3 -3 11 -2 19 2 19 4 0 20 36 35 80 16 44 32 80 37 80 5 0 6
7 3 15 -4 8 -1 15 5 15 6 0 11 -4 11 -10z m161 -63 c-10 -9 -11 -8 -5 6 3 10
9 15 12 12 3 -3 0 -11 -7 -18z"/>
<path d="M2307 1050 c-38 -30 -77 -116 -77 -171 0 -40 4 -51 31 -73 17 -14 35
-26 40 -26 28 0 93 46 124 88 46 62 44 73 -5 29 -47 -43 -117 -80 -136 -73
-17 7 -18 40 -1 53 6 6 24 13 39 17 34 8 87 53 99 83 12 31 -3 58 -41 78 -37
19 -42 19 -73 -5z m43 -14 c0 -3 -4 -8 -10 -11 -5 -3 -10 -1 -10 4 0 6 5 11
10 11 6 0 10 -2 10 -4z m-36 -31 c-4 -8 -8 -15 -10 -15 -2 0 -4 7 -4 15 0 8 4
15 10 15 5 0 7 -7 4 -15z m66 -2 c0 -17 -74 -93 -91 -93 -11 0 15 45 50 83 28
31 41 34 41 10z m-99 -50 c-8 -15 -10 -15 -11 -2 0 17 10 32 18 25 2 -3 -1
-13 -7 -23z m-11 -44 c0 -11 -4 -18 -10 -14 -5 3 -7 12 -3 20 7 21 13 19 13
-6z"/>
<path d="M1940 1049 c0 -17 -76 -140 -110 -179 -28 -32 -30 -33 -24 -10 3 14
21 57 39 97 28 60 31 74 20 83 -27 22 -50 6 -73 -53 -12 -31 -27 -80 -32 -109
-9 -43 -7 -54 7 -70 28 -31 53 -18 90 47 l33 60 -6 -41 c-5 -34 -2 -46 15 -63
28 -28 49 -26 84 6 17 17 26 21 22 11 -4 -11 0 -20 13 -27 17 -9 21 -5 36 33
9 23 39 67 67 97 27 30 45 44 39 32 -5 -12 -10 -30 -10 -41 0 -23 32 -40 39
-21 2 7 19 41 37 75 29 54 31 64 18 75 -23 19 -58 -3 -110 -71 -26 -33 -49
-60 -51 -60 -2 0 8 23 22 51 21 40 24 54 14 65 -27 33 -47 16 -74 -65 -21 -64
-35 -87 -68 -118 -39 -35 -42 -36 -45 -16 -2 12 13 63 33 112 20 50 34 95 30
101 -8 13 -55 13 -55 -1z m266 -64 c-22 -47 -42 -63 -26 -21 5 13 6 27 3 30
-8 8 17 36 32 36 9 0 7 -13 -9 -45z m-241 26 c3 -5 1 -12 -5 -16 -5 -3 -10 1
-10 9 0 18 6 21 15 7z m-144 -53 c-10 -24 -21 -50 -25 -58 -3 -8 -4 0 -1 17 4
28 31 83 41 83 1 0 -5 -19 -15 -42z m269 17 c0 -8 -2 -15 -4 -15 -2 0 -6 7
-10 15 -3 8 -1 15 4 15 6 0 10 -7 10 -15z m-140 1 c0 -2 -8 -23 -19 -46 -14
-31 -20 -37 -25 -25 -6 17 22 75 36 75 4 0 8 -2 8 -4z m116 -64 c-11 -10 -15
4 -8 28 l7 25 3 -23 c2 -13 1 -26 -2 -30z m-19 -34 c-3 -8 -6 -5 -6 6 -1 11 2
17 5 13 3 -3 4 -12 1 -19z m-14 -38 c-3 -11 -7 -20 -9 -20 -2 0 -4 9 -4 20 0
11 4 20 9 20 5 0 7 -9 4 -20z"/>
<path d="M2574 644 c-32 -55 -94 -194 -94 -212 0 -22 -44 -9 -55 16 -11 24
-39 29 -52 10 -4 -7 -8 -36 -9 -63 -2 -71 -45 -165 -76 -165 -25 0 17 154 78
288 35 76 36 105 7 116 -23 9 -26 4 -68 -111 -30 -81 -42 -103 -57 -103 -11 0
-23 11 -28 25 -5 14 -15 25 -22 25 -31 -1 -40 -19 -42 -81 -2 -42 -10 -78 -24
-105 -20 -39 -47 -61 -55 -46 -10 16 25 139 67 239 25 60 46 116 46 125 0 15
-37 45 -45 36 -9 -10 -94 -249 -100 -280 -5 -27 -20 -50 -54 -80 l-46 -43 -3
27 c-2 15 12 63 32 109 27 62 33 85 25 96 -23 27 -44 13 -77 -50 -18 -34 -51
-87 -73 -117 -36 -48 -40 -51 -34 -25 3 17 20 61 38 99 30 66 30 69 12 82 -10
8 -23 14 -27 14 -14 0 -56 -102 -70 -170 -12 -60 -12 -63 11 -81 31 -25 50
-13 87 56 l30 55 0 -46 c-1 -39 3 -50 26 -67 l28 -21 30 29 c16 16 33 38 37
49 6 18 8 16 13 -13 4 -26 14 -40 38 -54 l33 -19 42 43 c27 28 49 65 62 102
13 38 25 57 36 57 15 0 15 -5 3 -52 -20 -75 -18 -103 9 -120 41 -26 55 -27 83
-6 27 22 84 130 84 161 0 11 8 17 24 17 25 0 25 -1 10 -35 -22 -54 -19 -121 8
-139 35 -25 58 -19 100 26 32 35 38 38 38 20 0 -24 44 -62 72 -62 34 0 77 30
118 82 23 28 38 53 36 56 -3 3 -23 -11 -45 -31 -75 -68 -141 -88 -141 -43 0
21 11 30 64 55 100 48 117 106 44 151 -28 17 -34 17 -59 4 -30 -15 -73 -80
-84 -126 -12 -47 -125 -137 -125 -99 0 5 5 32 12 59 8 36 18 53 34 60 40 19
122 159 138 238 6 25 2 36 -20 57 -15 15 -30 27 -35 27 -4 0 -20 -21 -35 -46z
m39 -1 c-9 -26 -35 -64 -40 -60 -5 6 34 77 42 77 3 0 1 -8 -2 -17z m-3 -94
c-22 -65 -64 -144 -82 -155 -15 -9 -3 22 48 133 25 53 47 93 50 91 3 -3 -5
-34 -16 -69z m-244 24 c-11 -11 -17 4 -9 23 7 18 8 18 11 1 2 -10 1 -21 -2
-24z m-196 20 c-1 -18 -39 -77 -40 -61 0 9 5 20 10 23 6 3 10 15 10 26 0 10 5
19 10 19 6 0 10 -3 10 -7z m161 -94 c-11 -24 -20 -39 -20 -33 -1 16 29 87 35
82 2 -3 -4 -25 -15 -49z m219 26 c0 -8 -4 -15 -10 -15 -5 0 -7 7 -4 15 4 8 8
15 10 15 2 0 4 -7 4 -15z m-426 -40 c-4 -8 -8 -15 -10 -15 -2 0 -4 7 -4 15 0
8 4 15 10 15 5 0 7 -7 4 -15z m166 -96 c-18 -49 -20 -50 -14 -15 5 35 24 79
31 72 2 -1 -6 -27 -17 -57z m214 13 c-4 -18 -10 -32 -15 -32 -12 0 -11 14 3
45 15 32 20 27 12 -13z m246 23 c0 -17 -55 -81 -82 -96 -18 -10 -18 -9 1 29
11 22 32 50 47 61 32 25 34 25 34 6z m-922 -47 c-7 -13 -19 -41 -25 -63 -12
-39 -13 -39 -8 -5 7 45 39 125 43 106 2 -8 -3 -25 -10 -38z m131 20 c-6 -11
-19 -44 -29 -72 l-19 -51 0 40 c-1 29 5 46 19 58 11 9 20 26 20 37 0 12 5 18
10 15 7 -4 6 -13 -1 -27z m251 25 c0 -5 -7 -26 -15 -48 l-15 -40 4 45 c3 25 5
46 5 48 2 6 21 1 21 -5z m203 -9 c-1 -5 -6 -20 -11 -34 -9 -24 -9 -23 -13 11
-4 29 -1 36 11 34 8 -1 14 -7 13 -11z m267 1 c-7 -8 -17 -15 -22 -15 -6 0 -5
7 2 15 7 8 17 15 22 15 6 0 5 -7 -2 -15z m-36 -62 c-4 -16 -11 -33 -15 -39 -5
-6 -5 -15 -1 -19 4 -5 2 -5 -5 -1 -8 4 -9 14 -3 29 4 12 11 30 14 40 9 28 17
20 10 -10z"/>
<path d="M1570 643 c-61 -21 -114 -60 -144 -108 -31 -47 -34 -90 -7 -105 31
-16 41 -12 41 18 0 71 98 150 197 159 79 7 113 -7 113 -47 0 -44 -22 -81 -81
-134 -42 -38 -56 -45 -78 -40 -14 4 -27 8 -29 9 -1 1 11 32 28 68 31 70 31 92
-2 103 -27 8 -29 3 -78 -142 -46 -138 -47 -154 -21 -178 19 -17 20 -17 31 26
6 23 13 50 15 58 3 10 20 16 50 18 40 2 46 0 57 -23 10 -22 8 -30 -9 -53 -27
-37 -59 -52 -111 -52 -35 0 -49 6 -73 29 -30 30 -40 20 -19 -20 25 -46 139
-66 200 -34 68 35 91 107 45 143 l-24 19 49 31 c55 34 110 110 110 152 0 30
-59 93 -103 109 -40 15 -104 13 -157 -6z m-10 -37 c0 -2 -7 -7 -16 -10 -8 -3
-12 -2 -9 4 6 10 25 14 25 6z m-79 -59 c-10 -9 -11 -8 -5 6 3 10 9 15 12 12 3
-3 0 -11 -7 -18z m321 -29 c-9 -9 -12 -7 -12 12 0 19 3 21 12 12 9 -9 9 -15 0
-24z m-348 -18 c-18 -35 -34 -47 -34 -26 0 9 5 16 11 16 5 0 7 5 4 10 -3 6 -1
10 4 10 6 0 11 7 11 16 0 8 4 13 9 10 5 -4 3 -19 -5 -36z m131 -36 c-26 -64
-26 -68 -9 -81 12 -9 13 -13 4 -13 -7 0 -22 -7 -32 -17 -10 -9 -18 -12 -18 -6
0 17 47 148 61 171 24 38 21 15 -6 -54z m196 13 c-10 -9 -11 -8 -5 6 3 10 9
15 12 12 3 -3 0 -11 -7 -18z m-259 -179 c-8 -8 -9 -4 -5 13 4 13 8 18 11 10 2
-7 -1 -18 -6 -23z m169 -29 c-5 -13 -10 -19 -10 -12 -1 15 10 45 15 40 3 -2 0
-15 -5 -28z"/>
</g>
</svg>
