<?xml version="1.0" encoding="iso-8859-1"?>
<!-- Generator: Adobe Illustrator 19.0.0, SVG Export Plug-In . SVG Version: 6.00 Build 0)  -->
<svg version="1.1" id="Capa_1" xmlns="http://www.w3.org/2000/svg" xmlns:xlink="http://www.w3.org/1999/xlink" x="0px" y="0px"
	 viewBox="0 0 512.001 512.001" style="enable-background:new 0 0 512.001 512.001;" xml:space="preserve">
<path style="fill:#EF5A50;" d="M304.285,69.348V3.09c0-1.7-1.393-3.09-3.094-3.09h-80.635c-1.702,0-3.094,1.391-3.094,3.09v66.257
	L304.285,69.348L304.285,69.348z"/>
<g>
	<rect x="238.761" style="fill:#E23C38;" width="15" height="69.35"/>
	<rect x="267.981" style="fill:#E23C38;" width="15" height="69.35"/>
</g>
<path style="opacity:0.1;fill:#231F20;enable-background:new    ;" d="M234.962,69.348V3.09c0-1.7,1.392-3.09,3.094-3.09h-17.5
	c-1.702,0-3.094,1.391-3.094,3.09v66.257L234.962,69.348L234.962,69.348z"/>
<path style="fill:#FB8276;" d="M323.161,105.896V71.135c0-1.699-1.392-3.09-3.093-3.09H201.68c-1.702,0-3.093,1.391-3.093,3.09
	v34.762L323.161,105.896L323.161,105.896z"/>
<path style="opacity:0.1;fill:#231F20;enable-background:new    ;" d="M215.141,105.896V71.135c0-1.699,1.392-3.09,3.093-3.09
	H201.68c-1.702,0-3.093,1.391-3.093,3.09v34.762L215.141,105.896L215.141,105.896z"/>
<g>
	<rect x="285.651" y="68.04" style="fill:#EF5A50;" width="15" height="37.852"/>
	<rect x="253.371" y="68.04" style="fill:#EF5A50;" width="15" height="37.852"/>
	<rect x="221.101" y="68.04" style="fill:#EF5A50;" width="15" height="37.852"/>
</g>
<path style="fill:#9CE8FF;" d="M342.619,122.336c0.708-0.129,1.425-0.21,2.144-0.265l-5.452-15.53
	c-0.564-1.604-2.416-2.916-4.117-2.916h-148.64c-1.701,0-3.452,1.344-3.89,2.986l-12.555,47.091L342.619,122.336z"/>
<path style="opacity:0.1;fill:#231F20;enable-background:new    ;" d="M199.79,148.306l11.117-41.694
	c0.438-1.643,2.189-2.986,3.89-2.986h-28.242c-1.701,0-3.452,1.344-3.89,2.986l-12.555,47.091L199.79,148.306z"/>
<path style="fill:#63C3EA;" d="M446.56,374.823c-1.467-65.11-17.212-160.688-83.906-246.271c-3.866-4.964-9.962-7.929-16.307-7.929
	c-1.246,0-2.5,0.112-3.729,0.337l-177.677,32.306c-7.485,1.361-13.568,6.657-15.86,13.764c-0.085,0.257-8.852,26.294-41.362,85.13
	c-9.322,16.872-31.859,62.087-39.784,117.396c-7.758,54.149,1.802,100.616,27.646,134.379c3.866,5.049,10.002,8.065,16.415,8.065
	h301.742c9.179,0,17.323-6.093,19.806-14.811C434.142,495.095,448.142,445.089,446.56,374.823z M387.907,405.45
	c-0.179,0.005-0.358,0.007-0.536,0.007c-12.834,0-23.376-10.125-23.663-22.853c-0.804-35.741-5.705-70.69-14.564-103.879
	c-3.331-12.482,4.22-25.267,16.864-28.556c12.648-3.286,25.598,4.164,28.93,16.646c9.805,36.735,15.227,75.343,16.115,114.75
	C411.343,394.47,400.98,405.164,387.907,405.45z"/>
<path style="fill:#9CE8FF;" d="M66.917,430.832c3.59,28.191,13.214,52.918,28.664,73.103c3.866,5.049,10.002,8.065,16.415,8.065
	h301.742c9.179,0,17.323-6.093,19.806-14.811c0.422-1.479,7.518-26.853,11.102-66.357H66.917z"/>
<path style="opacity:0.1;fill:#231F20;enable-background:new    ;" d="M123.494,503.935c-25.843-33.763-35.403-80.23-27.646-134.379
	c7.925-55.31,30.462-100.525,39.785-117.396c32.509-58.836,41.277-84.873,41.361-85.13c0.971-3.012,4.523-10.19,8.86-17.565
	l-20.912,3.802c-7.485,1.361-13.568,6.657-15.86,13.764c-0.085,0.257-8.852,26.294-41.362,85.13
	c-9.322,16.872-31.859,62.087-39.784,117.396c-7.758,54.149,1.802,100.616,27.646,134.379c3.866,5.049,10.002,8.065,16.415,8.065
	h27.913C133.496,512,127.36,508.983,123.494,503.935z"/>
<path style="fill:#EF5A50;" d="M136.802,463.736c-7.403,0-13.935-4.786-16.08-11.781c-18.077-58.981,13.31-140.012,32.432-174.62
	c14.381-26.026,26.906-50.537,36.224-70.882c2.268-4.952,6.849-8.493,12.265-9.478l58.068-10.557
	c1.019-0.185,2.038-0.276,3.047-0.276c6.009,0,11.66,3.189,14.665,8.5c38.561,68.18,47.926,138.772,48.992,185.987
	c0.511,22.81-0.654,45.869-3.464,68.537c-1.03,8.317-8.185,14.569-16.675,14.569H136.802V463.736z"/>
<path style="fill:#FFFFFF;" d="M298.017,237.64c-66.933,3.015-109.846,74.604-169.503,98.39
	c-7.61,24.083-13.282,51.197-13.182,77.085c79.896-0.486,125.421-99.1,203.165-105.727
	C314.15,285.265,307.619,261.64,298.017,237.64z"/>
<ellipse style="fill:#FCC96C;" cx="267.111" cy="404.21" rx="30.31" ry="29.919"/>
<path style="opacity:0.1;fill:#231F20;enable-background:new    ;" d="M148.126,451.621c-18.59-60.656,13.688-143.989,33.354-179.58
	c14.789-26.766,27.67-51.972,37.252-72.895c1.108-2.42,2.759-4.507,4.779-6.145l-21.868,3.976
	c-5.416,0.985-9.997,4.526-12.265,9.478c-9.317,20.346-21.843,44.856-36.224,70.882c-19.122,34.607-50.509,115.639-32.432,174.62
	c2.145,6.995,8.677,11.781,16.08,11.781h27.861C157.05,463.736,150.332,458.815,148.126,451.621z"/>
<g>
</g>
<g>
</g>
<g>
</g>
<g>
</g>
<g>
</g>
<g>
</g>
<g>
</g>
<g>
</g>
<g>
</g>
<g>
</g>
<g>
</g>
<g>
</g>
<g>
</g>
<g>
</g>
<g>
</g>
</svg>
